# xmcd
#
# Track frame offsets:
#  182
#  32380
#  53830
#  79782
#  110832
#  154920
#
# Disc length: 2779 seconds
#
# Revision: 0
# Processed by: cddbd v1.4PL0 Copyright (c) Steve Scherf et al.
# Submitted via: AltoMP3_Maker 3.0
#
DISCID=430ad906
DTITLE=Stevie Wonder - Vision
DYEAR=1900
DGENRE=
TTITLE0=To Know You Is To Love You
TTITLE1=Don't You Worry About A Thing
TTITLE2=Higher Ground
TTITLE3=Superstition
TTITLE4=Visions
TTITLE5=You Are The Sunshine Of My Life
EXTD=
EXTT0=
EXTT1=
EXTT2=
EXTT3=
EXTT4=
EXTT5=
PLAYORDER=
